<svg width="20" height="21" viewBox="0 0 20 21" fill="none" xmlns="http://www.w3.org/2000/svg">
<path d="M9 15.25H11V11.25H15V9.25H11V5.25H9V9.25H5V11.25H9V15.25ZM10 20.25C8.61667 20.25 7.31667 19.9873 6.1 19.462C4.88334 18.9367 3.825 18.2243 2.925 17.325C2.025 16.4257 1.31267 15.3673 0.788001 14.15C0.263335 12.9327 0.000667933 11.6327 1.26582e-06 10.25C-0.000665401 8.86733 0.262001 7.56733 0.788001 6.35C1.314 5.13267 2.02633 4.07433 2.925 3.175C3.82367 2.27567 4.882 1.56333 6.1 1.038C7.318 0.512667 8.618 0.25 10 0.25C11.382 0.25 12.682 0.512667 13.9 1.038C15.118 1.56333 16.1763 2.27567 17.075 3.175C17.9737 4.07433 18.6863 5.13267 19.213 6.35C19.7397 7.56733 20.002 8.86733 20 10.25C19.998 11.6327 19.7353 12.9327 19.212 14.15C18.6887 15.3673 17.9763 16.4257 17.075 17.325C16.1737 18.2243 15.1153 18.937 13.9 19.463C12.6847 19.989 11.3847 20.2513 10 20.25ZM10 18.25C12.2333 18.25 14.125 17.475 15.675 15.925C17.225 14.375 18 12.4833 18 10.25C18 8.01667 17.225 6.125 15.675 4.575C14.125 3.025 12.2333 2.25 10 2.25C7.76667 2.25 5.875 3.025 4.325 4.575C2.775 6.125 2 8.01667 2 10.25C2 12.4833 2.775 14.375 4.325 15.925C5.875 17.475 7.76667 18.25 10 18.25Z" fill="white"/>
</svg>
