<svg width="20" height="20" viewBox="0 0 20 20" fill="none" xmlns="http://www.w3.org/2000/svg">
<path d="M9.99999 1.66669C5.39166 1.66669 1.66666 5.39169 1.66666 10C1.66666 14.6084 5.39166 18.3334 9.99999 18.3334C14.6083 18.3334 18.3333 14.6084 18.3333 10C18.3333 5.39169 14.6083 1.66669 9.99999 1.66669ZM9.99999 16.6667C6.31666 16.6667 3.33332 13.6834 3.33332 10C3.33332 6.31669 6.31666 3.33335 9.99999 3.33335C13.6833 3.33335 16.6667 6.31669 16.6667 10C16.6667 13.6834 13.6833 16.6667 9.99999 16.6667Z" fill="#1E1E1E"/>
<path fill-rule="evenodd" clip-rule="evenodd" d="M6.99999 9L5.99999 10L8.99999 13L14 8L13 7L8.99999 11L6.99999 9Z" fill="#1E1E1E"/>
</svg>
